<svg xmlns="http://www.w3.org/2000/svg" xmlns:xlink="http://www.w3.org/1999/xlink" viewBox="0 0 403.03 488.89"><defs><style>.a{fill:url(#a);}.b{fill:url(#b);}.c{fill:url(#c);}.d{fill:url(#d);}.e{fill:url(#e);}.f{fill:url(#f);}.g{fill:url(#g);}.h{fill:url(#h);}.i{fill:url(#i);}.j{fill:url(#j);}.k{fill:url(#k);}.l{fill:url(#l);}.m{fill:url(#m);}.n{fill:url(#n);}.o{fill:url(#o);}.p{fill:url(#p);}.q{fill:url(#q);}</style><linearGradient id="a" x1="211.34" y1="528.66" x2="232.36" y2="528.66" gradientUnits="userSpaceOnUse"><stop offset="0" stop-color="#ddb667"/><stop offset="0.45" stop-color="#f7e986"/><stop offset="0.75" stop-color="#ceae65"/><stop offset="0.94" stop-color="#b7894b"/></linearGradient><linearGradient id="b" x1="241.38" y1="537.97" x2="260.77" y2="537.97" xlink:href="#a"/><linearGradient id="c" x1="272.06" y1="541.8" x2="277.79" y2="541.8" xlink:href="#a"/><linearGradient id="d" x1="291.46" y1="543.08" x2="309.89" y2="543.08" xlink:href="#a"/><linearGradient id="e" x1="323.31" y1="540.28" x2="344.62" y2="540.28" xlink:href="#a"/><linearGradient id="f" x1="368.9" y1="529.68" x2="390.44" y2="529.68" xlink:href="#a"/><linearGradient id="g" x1="392.71" y1="518.86" x2="405.81" y2="518.86" xlink:href="#a"/><linearGradient id="h" x1="407.74" y1="506.88" x2="426.21" y2="506.88" xlink:href="#a"/><linearGradient id="i" x1="429.13" y1="490.37" x2="455" y2="490.37" xlink:href="#a"/><linearGradient id="j" x1="463.39" y1="460.46" x2="488.63" y2="460.46" xlink:href="#a"/><linearGradient id="k" x1="476.9" y1="430.79" x2="505.33" y2="430.79" xlink:href="#a"/><linearGradient id="l" x1="491.57" y1="401.9" x2="516.12" y2="401.9" xlink:href="#a"/><linearGradient id="m" x1="505.26" y1="353.07" x2="529.91" y2="353.07" xlink:href="#a"/><linearGradient id="n" x1="508.28" y1="320.11" x2="531.29" y2="320.11" xlink:href="#a"/><linearGradient id="o" x1="505.87" y1="289.19" x2="529.41" y2="289.19" xlink:href="#a"/><linearGradient id="p" x1="498.1" y1="260.09" x2="523.7" y2="260.09" xlink:href="#a"/><linearGradient id="q" x1="128.25" y1="278.4" x2="528.91" y2="278.4" xlink:href="#a"/></defs><path class="a" d="M219.08,516.29l8.26,3.05c4.55,1.68,5.71,4.82,4.65,7.69a4.92,4.92,0,0,1-4.63,3.48,5.49,5.49,0,0,1,1.79,6.31c-1.44,3.89-5.26,5.08-9.33,3.58l-8.48-3.13Zm-3.75,19.58,5,1.84c2.61,1,4.74.38,5.66-2.1.79-2.16-.07-4.12-3.41-5.35L218,528.58Zm8.29-8.09c2.88,1.06,4.43.32,5.14-1.62.67-1.79-.18-3.5-2.51-4.35L221.2,520,219,526.06Z" transform="translate(-128.25 -65.44)"/><path class="b" d="M246.67,538.42l-2.09,9.45-3.2-.71,4.84-21.83,8.73,1.94c4.54,1,6.41,4,5.66,7.41a5.14,5.14,0,0,1-4.76,4.34c1.55.82,2.83,2.46,2,6.28l-.21,1a15.92,15.92,0,0,0-.65,4.36l-3.13-.7a15.45,15.45,0,0,1,.66-4.82l.1-.43c.66-3,.12-4.47-3.72-5.32Zm.6-2.69,4.6,1c3.19.71,4.84-.19,5.35-2.52s-.67-3.79-3.51-4.42l-4.89-1.08Z" transform="translate(-128.25 -65.44)"/><path class="c" d="M277.79,530.87l-2.43,22.22-3.3-.36,2.43-22.23Z" transform="translate(-128.25 -65.44)"/><path class="d" d="M291.66,554.34l-.2-22.36,4.32,0c3.17,5.16,9.9,15.83,11.13,18.26h0c-.25-2.76-.26-6.36-.29-10l-.08-8.33,3.1,0,.2,22.36-4.06,0c-2.89-4.73-10-16.34-11.35-18.85h0c.18,2.44.23,6.38.26,10.41l.08,8.54Z" transform="translate(-128.25 -65.44)"/><path class="e" d="M344.62,549.85l-2.49.4a12.88,12.88,0,0,1-.75-2.79c-.75,1.74-2.45,3.62-6.27,4.24-6.38,1-10.57-3.26-11.58-9.55-1.07-6.61,1.81-12.18,8.52-13.26,5.24-.84,8.95,1.5,10.19,5.31l-3.28.53c-1.06-2.17-3-3.71-6.54-3.14-5,.81-6.26,5.14-5.5,9.86.71,4.41,3.32,8.24,8.19,7.46s5.41-4.16,4.86-7.55l0-.23-6,1-.45-2.77,9.16-1.48Z" transform="translate(-128.25 -65.44)"/><path class="f" d="M368.9,519.86l3.09-1.2,7.07,18.23,10.78-4.18.6,2.77L377,540.7Z" transform="translate(-128.25 -65.44)"/><path class="g" d="M395.66,508.14l10.15,19.93-3,1.51-10.14-19.93Z" transform="translate(-128.25 -65.44)"/><path class="h" d="M407.74,501.47,420,493.53l1.53,2.36L412,502.05l3.76,5.81,8.92-5.78,1.53,2.36-8.92,5.78,5.34,8.24-2.74,1.77Z" transform="translate(-128.25 -65.44)"/><path class="i" d="M447.83,486.6l-8.43,7.13,4.84,5.72,9.26-7.84L455,494l-11.42,9.67-14.45-17.07,11.31-9.57,1.81,2.15-8.83,7.47,4.17,4.91,8.42-7.13Z" transform="translate(-128.25 -65.44)"/><path class="j" d="M474.59,463.71l3.69,5.73-2,2.6-12.88-19.9,2.51-3.25L488.63,456l-2.15,2.79L480,456.76Zm2.65-8c-5.72-1.85-8.88-2.84-10.57-3.52l0,0c1.21,1.63,3.39,4.91,6.22,9.16Z" transform="translate(-128.25 -65.44)"/><path class="k" d="M496.37,444.22l-19.47-11,2.12-3.76c6.06-.17,18.66-.67,21.37-.53l0,0c-2.52-1.17-5.64-2.95-8.83-4.75l-7.25-4.09,1.52-2.7,19.47,11-2,3.54c-5.54.14-19.14.48-22,.41l0,0c2.2,1.06,5.64,3,9.15,5l7.44,4.2Z" transform="translate(-128.25 -65.44)"/><path class="l" d="M491.57,405.15l2.92-7.62c2.26-5.91,7.79-8.35,14-6s9.19,7.95,6.84,14.08l-2.87,7.5Zm19.48,3.9,1.6-4.19c1.82-4.75-.74-8.29-5.34-10.05-4-1.53-8.46-.89-10.34,4L495.36,403Z" transform="translate(-128.25 -65.44)"/><path class="m" d="M505.26,360.29l.47-3.28,9.12,1.3,1.58-11-9.12-1.3.47-3.29,22.13,3.17-.47,3.28-10.23-1.46-1.58,11,10.23,1.46-.47,3.29Z" transform="translate(-128.25 -65.44)"/><path class="n" d="M519.58,309.65c6.16-.06,11.65,3.4,11.7,10.49.06,6.66-5,10.38-11.41,10.43s-11.53-3.71-11.59-10.51C508.22,313.72,512.89,309.7,519.58,309.65Zm.16,17.46c4.75,0,8.79-2.44,8.75-7.09,0-5-4.21-6.95-8.84-6.91s-8.62,2.3-8.58,7.07S515.05,327.15,519.74,327.11Z" transform="translate(-128.25 -65.44)"/><path class="o" d="M507.31,297.69,506,289.16c-.67-4.38,1.32-7.74,5.38-8.37,4.4-.67,7.16,2.18,7.83,6.51l.77,5.08,8.93-1.37.5,3.3Zm9.95-4.9-.74-4.84c-.44-2.87-2-4.19-4.54-3.8s-3.6,2.39-3.22,4.87l.76,5Z" transform="translate(-128.25 -65.44)"/><path class="p" d="M509.83,253.31l3.07,10.61,7.2-2.09-3.38-11.65,2.82-.38,4.16,14.37-21.48,6.22-4.12-14.22,2.7-.78,3.22,11.1,6.19-1.79-3.08-10.6Z" transform="translate(-128.25 -65.44)"/><path class="q" d="M527.72,177.7c-.23-.37-6.11-9-18.55-16.38-11.4-6.72-30.76-13.53-58.19-7.81-22.78,4.75-40.59,18.2-51.52,38.89a102.66,102.66,0,0,0-10.1,30.75,130,130,0,0,1-36-14.82c0-12.45.06-28.15.06-47.93,0-37-5.57-57.27-22.89-73.33C313,70.78,290,65.39,289.2,65.44l-2.2.17-.45,2.16a137,137,0,0,0,60.94,143.82c-.12,39-.35,43.59-.35,43.79L347,320.49a29.44,29.44,0,0,1-3.48,15.1c-2.93,6-8.31,11.6-12.31,15.22-4.26,3.79-14.13,6.57-17.63,6.57H268.62c0-9.38-.16-38.49,0-43.16.24-5.25,2.42-13.73,11.45-24.31,9.3-10.88,31.86-11,32.09-11H331V233.41l-2.9,0c-4.41,0-26.54-.25-29,0-.23,0-.55,0-1,.08-19.5,1.11-37.64,10.53-53.93,28-15.92,17.05-23.91,38.64-22.5,60.76,0,.35,0,.59,0,.73V450.17c0,4.05-2.6,10.29-5.55,13.21l-.12.12c-1.61-1-3.2-2-4.76-3.07a165.36,165.36,0,0,1-50-48.83c-.39-.57-.76-1.16-1.14-1.75,5.49-5.53,17.57-7,19.69-7h24.33V357.38l-2.82-.1c-.13,0-13.2-.47-28.45,0-11.24.36-24.75,5-32.13,10.18a163.66,163.66,0,0,1-6.61-46.16c0-72.22,46.89-133.69,111.81-155.59L244.13,160A169.66,169.66,0,0,0,128.34,316c-.07,1.76-.09,3.52-.09,5.28a170.05,170.05,0,1,0,331.89-52.48l-5.7,1.78A164.37,164.37,0,0,1,351,476.77l-.15,0a164.67,164.67,0,0,1-89.81,4.39c7.54-16.12,7.5-36.17,7.5-36.38V403.07h47.26c9,0,32.45-2.94,57.5-30,19-20.53,20.49-46.91,20.49-54.57l.13-21.75V237.35c0-.49,0-3.11.43-7.11a137,137,0,0,0,133.19-49.09l1.33-1.67ZM142.49,373c6.31-5.22,19.95-9.55,30.58-9.88,10.88-.33,20.62-.19,25.24-.08v34H179.83c-3.09,0-16.4,2.61-22.73,7.91A163.83,163.83,0,0,1,142.49,373ZM347,178.88c-2.5-10.14-5.34-20.21-8.69-30.1a243.1,243.1,0,0,0-11.72-29,133.19,133.19,0,0,0-16.5-26.47,132.07,132.07,0,0,1,15.17,27.07,243.13,243.13,0,0,1,10.26,29.29c2.85,9.94,5.18,20,7.18,30.17,1.58,8.05,2.95,16.18,4,24.27a131.09,131.09,0,0,1-54.92-132.8c5.28.2,22.4,8.58,34.82,20.17,16,14.92,20.91,33.68,20.91,68.94,0,7.41,0,14.25,0,20.57C347.38,180.28,347.21,179.57,347,178.88Zm41.06,58.47V296.7L388,318.54c0,5-.9,31.07-18.92,50.52-23.49,25.4-45,28.15-53.21,28.15H262.72v47.61c0,.2.36,20.67-7.4,34.92A162.23,162.23,0,0,1,221.4,466.3c3.58-4.32,6.15-11.18,6.15-16.13V323c0-.2,0-.58-.05-1.1-1.31-20.5,6.12-40.52,20.93-56.39,15.22-16.34,32-25.13,50-26.17.54,0,.95,0,1.26-.08,1.5-.15,15.36-.1,25.45,0V273H312.17c-1,0-25.5.14-36.54,13.07C265.51,298,263.07,307.79,262.79,314c-.21,5.7,0,44.69,0,46.35v2.91h50.76c4.4,0,15.91-3.05,21.54-8.07,4.4-4,10.33-10.16,13.66-17a35.19,35.19,0,0,0,4.07-17.67l.14-61v-3.83c0-.86.25-6.72.36-40.58A135.85,135.85,0,0,0,388.57,229,81.15,81.15,0,0,0,388.1,237.35Zm32.42-10.45a130,130,0,0,1-23.75-2.18c.41-.57.84-1.1,1.27-1.65,1.37-1.72,2.8-3.43,4.29-5.08a117.07,117.07,0,0,1,9.53-9.37,115.29,115.29,0,0,1,22-15.25A113.45,113.45,0,0,1,459,183.58a124.64,124.64,0,0,1,26.89-3.73,124.66,124.66,0,0,0-27.22,2.3,116,116,0,0,0-26.11,8.6,120.12,120.12,0,0,0-34,23.72c-.62.62-1.25,1.23-1.85,1.87,4.91-20.42,18.4-49.38,55.4-57.09,42.63-8.89,64.14,13.45,69.4,20A130.31,130.31,0,0,1,420.52,226.9Z" transform="translate(-128.25 -65.44)"/></svg>