<svg xmlns="http://www.w3.org/2000/svg" xmlns:xlink="http://www.w3.org/1999/xlink" viewBox="0 0 402.57 488.33"><defs><style>.a{fill:#4c5eca;}.b{fill:#744ec6;}.c{fill:#7546c9;}.d{fill:#7e40c9;}.e{fill:#8f36c8;}.f{fill:#a039b6;}.g{fill:#a83bad;}.h{fill:#b63e9c;}.i{fill:#c3428c;}.j{fill:#dd486e;}.k{fill:#e84b61;}.l{fill:#f55552;}.m{fill:#f76b5a;}.n{fill:#f77551;}.o{fill:#f88451;}.p{fill:#f99051;}.q{fill:url(#a);}</style><linearGradient id="a" x1="394.7" y1="155.22" x2="197" y2="497.64" gradientUnits="userSpaceOnUse"><stop offset="0" stop-color="#feca50"/><stop offset="0.45" stop-color="#f44e52"/><stop offset="0.75" stop-color="#9135c8"/><stop offset="0.94" stop-color="#4c5eca"/></linearGradient></defs><path class="a" d="M219.18,516.93l8.25,3c4.55,1.68,5.71,4.82,4.65,7.69a4.91,4.91,0,0,1-4.62,3.47,5.5,5.5,0,0,1,1.78,6.31c-1.43,3.88-5.25,5.07-9.31,3.57l-8.47-3.12Zm-3.74,19.56,5,1.83c2.6,1,4.73.38,5.64-2.09.8-2.17-.06-4.12-3.39-5.35l-4.54-1.67Zm8.28-8.08c2.87,1.05,4.42.32,5.14-1.62.66-1.79-.19-3.5-2.51-4.35l-5-1.86-2.25,6.1Z" transform="translate(-128.46 -66.6)"/><path class="b" d="M246.75,539l-2.09,9.44-3.2-.71,4.83-21.8,8.72,1.93c4.54,1,6.41,4,5.66,7.4a5.14,5.14,0,0,1-4.75,4.34c1.54.82,2.82,2.46,2,6.27l-.22,1a16,16,0,0,0-.65,4.35l-3.13-.69a15.44,15.44,0,0,1,.67-4.81l.09-.44c.66-3,.13-4.46-3.71-5.31Zm.59-2.68,4.59,1c3.2.71,4.84-.19,5.35-2.52s-.67-3.79-3.51-4.42l-4.88-1.08Z" transform="translate(-128.46 -66.6)"/><path class="c" d="M277.82,531.49l-2.42,22.19-3.29-.36,2.42-22.19Z" transform="translate(-128.46 -66.6)"/><path class="d" d="M291.68,554.93l-.2-22.33,4.31,0c3.18,5.16,9.89,15.81,11.13,18.23h0c-.24-2.76-.26-6.35-.29-10l-.07-8.32,3.09,0,.2,22.33-4.06,0c-2.89-4.73-10-16.33-11.33-18.83h-.05c.19,2.43.23,6.36.27,10.39l.07,8.54Z" transform="translate(-128.46 -66.6)"/><path class="e" d="M344.58,550.45l-2.48.4a11.78,11.78,0,0,1-.75-2.79c-.76,1.74-2.46,3.62-6.27,4.23-6.37,1-10.56-3.25-11.57-9.53-1.06-6.61,1.81-12.17,8.52-13.25,5.23-.84,8.93,1.5,10.17,5.31l-3.27.52c-1.06-2.16-3-3.7-6.53-3.13-5,.8-6.26,5.14-5.5,9.85.71,4.4,3.31,8.23,8.18,7.45s5.4-4.15,4.86-7.54l0-.23-5.95,1-.44-2.77,9.14-1.47Z" transform="translate(-128.46 -66.6)"/><path class="f" d="M368.83,520.5l3.09-1.2L379,537.5l10.76-4.17.61,2.77-13.45,5.21Z" transform="translate(-128.46 -66.6)"/><path class="g" d="M395.56,508.79,405.7,528.7l-3,1.5-10.13-19.91Z" transform="translate(-128.46 -66.6)"/><path class="h" d="M407.63,502.12l12.24-7.93,1.52,2.36-9.5,6.16,3.75,5.79,8.91-5.77,1.53,2.36-8.91,5.77,5.33,8.23-2.73,1.77Z" transform="translate(-128.46 -66.6)"/><path class="i" d="M447.67,487.27l-8.42,7.12,4.83,5.71,9.26-7.83,1.49,2.42-11.41,9.65-14.43-17,11.29-9.56,1.82,2.15-8.82,7.46,4.16,4.91,8.42-7.12Z" transform="translate(-128.46 -66.6)"/><path class="j" d="M474.4,464.41l3.69,5.72-2,2.6-12.87-19.88,2.51-3.25,22.7,7.13-2.15,2.79-6.51-2Zm2.64-8c-5.71-1.85-8.86-2.84-10.55-3.52l0,0c1.21,1.63,3.38,4.91,6.21,9.15Z" transform="translate(-128.46 -66.6)"/><path class="k" d="M496.15,444.94l-19.44-11,2.12-3.75c6-.17,18.63-.67,21.34-.53l0,0c-2.52-1.17-5.64-2.95-8.82-4.74l-7.24-4.09,1.52-2.7,19.44,11-2,3.53c-5.54.14-19.12.48-22,.42l0,0c2.2,1.05,5.63,3,9.14,5l7.43,4.19Z" transform="translate(-128.46 -66.6)"/><path class="l" d="M491.36,405.91l2.92-7.61c2.26-5.9,7.77-8.34,14-6s9.18,7.94,6.83,14.06l-2.87,7.5Zm19.45,3.9,1.61-4.19c1.81-4.73-.75-8.27-5.34-10-4-1.53-8.45-.89-10.33,4l-1.61,4.2Z" transform="translate(-128.46 -66.6)"/><path class="m" d="M505,361.11l.47-3.28,9.11,1.3,1.58-11-9.11-1.31.47-3.28,22.1,3.16-.47,3.28L519,348.5l-1.58,11L527.61,361l-.47,3.28Z" transform="translate(-128.46 -66.6)"/><path class="n" d="M519.33,310.52c6.16,0,11.64,3.4,11.7,10.48.05,6.66-5,10.37-11.4,10.42s-11.52-3.7-11.58-10.49C508,314.59,512.66,310.58,519.33,310.52ZM519.5,328c4.74,0,8.78-2.44,8.74-7.09,0-5-4.21-6.94-8.83-6.9s-8.61,2.3-8.57,7.06S514.81,328,519.5,328Z" transform="translate(-128.46 -66.6)"/><path class="o" d="M507.08,298.58l-1.31-8.52c-.67-4.37,1.32-7.73,5.38-8.36,4.39-.67,7.15,2.18,7.81,6.51l.78,5.06,8.91-1.37.51,3.3Zm9.94-4.89-.74-4.84c-.44-2.87-2-4.18-4.54-3.8s-3.59,2.39-3.21,4.87l.76,4.95Z" transform="translate(-128.46 -66.6)"/><path class="p" d="M509.6,254.26l3.07,10.59,7.18-2.09-3.37-11.64,2.81-.38,4.16,14.36L502,271.31l-4.11-14.2,2.69-.78,3.21,11.09,6.18-1.79L506.9,255Z" transform="translate(-128.46 -66.6)"/><path class="q" d="M527.47,178.73c-.24-.37-6.1-9-18.53-16.36-11.39-6.72-30.73-13.52-58.12-7.8-22.76,4.74-40.55,18.18-51.46,38.84a102.46,102.46,0,0,0-10.09,30.72,130.36,130.36,0,0,1-36-14.8c0-12.45.06-28.13.06-47.88,0-37-5.57-57.2-22.86-73.24C313,71.93,290.06,66.55,289.22,66.6l-2.19.17-.45,2.15a136.83,136.83,0,0,0,60.87,143.66c-.13,39-.35,43.54-.36,43.74l-.16,65a29.4,29.4,0,0,1-3.47,15.09c-2.92,6-8.3,11.58-12.29,15.2-4.26,3.79-14.11,6.56-17.61,6.56H268.67c0-9.37-.16-38.44,0-43.11.24-5.25,2.42-13.71,11.44-24.28,9.29-10.87,31.82-11,32-11h18.78V234.37l-2.89,0c-4.41,0-26.51-.24-29,0-.23,0-.56,0-1,.08-19.48,1.11-37.61,10.52-53.88,28-15.9,17-23.88,38.6-22.47,60.69,0,.35.05.59.05.73V450.88c0,4.05-2.6,10.29-5.54,13.19l-.12.13c-1.61-1-3.19-2-4.76-3.07a165.3,165.3,0,0,1-49.93-48.77c-.39-.57-.76-1.16-1.14-1.74,5.49-5.53,17.55-7,19.67-7h24.31V358.2l-2.82-.1c-.13,0-13.19-.47-28.42,0-11.23.36-24.72,5-32.09,10.17a163.26,163.26,0,0,1-6.6-46.11c0-72.13,46.83-133.53,111.67-155.4l-1.82-5.69A169.47,169.47,0,0,0,128.55,316.89c-.07,1.75-.09,3.51-.09,5.27A169.86,169.86,0,1,0,460,269.75l-5.69,1.77A164.17,164.17,0,0,1,351,477.45l-.15.05a164.38,164.38,0,0,1-89.7,4.38c8.94-15.41,7.49-36.13,7.49-36.34v-41.7h47.21c8.93,0,32.4-2.93,57.43-30,19-20.51,20.46-46.86,20.46-54.51l.13-21.73V238.32c0-.5,0-3.11.44-7.11a136.84,136.84,0,0,0,133-49l1.33-1.67ZM142.69,373.81c6.3-5.21,19.92-9.53,30.54-9.87,10.87-.33,20.6-.18,25.21-.08v33.95H180c-3.08,0-16.38,2.61-22.7,7.91A162.91,162.91,0,0,1,142.69,373.81ZM347,179.91c-2.49-10.13-5.33-20.18-8.67-30.07a245,245,0,0,0-11.71-29,132.36,132.36,0,0,0-16.48-26.43,131.3,131.3,0,0,1,15.15,27,243.09,243.09,0,0,1,10.25,29.25c2.85,9.93,5.18,20,7.18,30.14,1.57,8,2.94,16.16,4,24.24A131,131,0,0,1,291.84,72.45c5.28.2,22.37,8.56,34.78,20.14,16,14.91,20.89,33.65,20.89,68.86,0,7.4,0,14.23,0,20.54C347.34,181.3,347.17,180.6,347,179.91Zm41,58.41v59.27l-.13,21.82c0,5-.9,31-18.9,50.46C345.52,395.24,324,398,315.84,398H262.78v47.56c0,.2,2.24,20.21-7.4,34.88A162.09,162.09,0,0,1,221.5,467c3.58-4.31,6.15-11.16,6.15-16.11V323.81c0-.2,0-.57-.06-1.09-1.31-20.49,6.12-40.49,20.91-56.34,15.2-16.31,32-25.09,49.93-26.13.53,0,.95-.05,1.25-.08,1.5-.15,15.35-.1,25.42,0V274H312.16c-1,0-25.46.14-36.49,13.05-10.11,11.83-12.55,21.66-12.82,27.84-.22,5.69,0,44.64,0,46.3v2.9h50.71c4.39,0,15.89-3,21.51-8.06,4.4-4,10.32-10.14,13.65-17a35.19,35.19,0,0,0,4.06-17.65l.14-60.92v-3.83c0-.86.25-6.72.36-40.53A136,136,0,0,0,388.48,230,80.85,80.85,0,0,0,388,238.32Zm32.38-10.45a130.56,130.56,0,0,1-23.72-2.17c.41-.57.84-1.11,1.26-1.65,1.37-1.72,2.81-3.43,4.29-5.08a117.45,117.45,0,0,1,31.54-24.59,113.67,113.67,0,0,1,25.11-9.78,125,125,0,0,1,26.86-3.73,125.58,125.58,0,0,0-27.19,2.3,116.75,116.75,0,0,0-26.08,8.59,118.1,118.1,0,0,0-23.52,14.48,119.51,119.51,0,0,0-10.42,9.21c-.62.62-1.24,1.23-1.84,1.88,4.91-20.4,18.38-49.33,55.33-57,42.58-8.88,64.07,13.44,69.33,20A130.17,130.17,0,0,1,420.39,227.87Z" transform="translate(-128.46 -66.6)"/></svg>